<?xml version="1.0" encoding="utf-8"?>
<!-- Generator: Adobe Illustrator 26.2.1, SVG Export Plug-In . SVG Version: 6.00 Build 0)  -->
<svg version="1.1" id="Capa_1" xmlns="http://www.w3.org/2000/svg" xmlns:xlink="http://www.w3.org/1999/xlink" x="0px" y="0px"
	 viewBox="0 0 24 24" style="enable-background:new 0 0 24 24;" xml:space="preserve">
<style type="text/css">
	.st0{fill:none;}
	.st1{fill:#FFFFFF;}
</style>
<path class="st0" d="M0,0"/>
<path class="st1" d="M24,6.1c-0.1,2.6-1.8,6-4.9,10.4c-3.3,4.6-6,6.9-8.3,6.9c-1.3,0-2.6-1.4-3.5-4.2l-2.1-7.7
	C4.6,8.7,3.8,7.3,3,7.3c-0.2,0-0.8,0.3-1.9,1.2L0,7c1.1-1.1,2.4-2.3,3.5-3.4C5.1,2,6.2,1.2,7,1.2c1.9-0.2,3,1.1,3.4,4.2
	c0.4,3.2,0.8,5.2,0.9,6c0.5,2.7,1.1,4,1.8,4c0.5,0,1.2-0.9,2.3-2.6s1.6-3.1,1.7-4c0.1-1.5-0.4-2.3-1.7-2.3c-0.6,0-1.1,0.1-1.8,0.5
	c1.1-4.2,3.4-6.2,6.7-6.1C23,1,24.1,2.7,24,6.1L24,6.1z"/>
</svg>
