<?xml version="1.0" encoding="utf-8"?>
<!-- Generator: Adobe Illustrator 26.2.1, SVG Export Plug-In . SVG Version: 6.00 Build 0)  -->
<svg version="1.1" id="Capa_1" xmlns="http://www.w3.org/2000/svg" xmlns:xlink="http://www.w3.org/1999/xlink" x="0px" y="0px"
	 viewBox="0 0 24 24" style="enable-background:new 0 0 24 24;" xml:space="preserve">
<style type="text/css">
	.st0{fill:#FFFFFF;}
</style>
<path class="st0" d="M22.7,0H1.3C0.6,0,0,0.6,0,1.3v21.3C0,23.4,0.6,24,1.3,24h21.3c0.7,0,1.3-0.6,1.3-1.3V1.3C24,0.6,23.4,0,22.7,0
	z M3.7,20.1V9.3h3.6v10.8H3.7z M5.5,7.8L5.5,7.8L5.5,7.8c-1.2,0-2-0.8-2-1.9c0-1.1,0.8-1.9,2-1.9c1.2,0,2,0.8,2,1.9
	C7.5,7,6.8,7.8,5.5,7.8z M20.2,20.1h-3.6v-5.8c0-1.5-0.5-2.4-1.8-2.4c-1,0-1.6,0.7-1.8,1.3c-0.1,0.2-0.1,0.6-0.1,0.9v6H9.3l0,0
	c0,0,0-9.8,0-10.8h3.6v1.5c0.5-0.7,1.3-1.8,3.2-1.8c2.4,0,4.1,1.5,4.1,4.9V20.1z"/>
</svg>
