<?xml version="1.0" encoding="utf-8"?>
<!-- Generator: Adobe Illustrator 26.2.1, SVG Export Plug-In . SVG Version: 6.00 Build 0)  -->
<svg version="1.1" id="Capa_1" xmlns="http://www.w3.org/2000/svg" xmlns:xlink="http://www.w3.org/1999/xlink" x="0px" y="0px"
	 viewBox="0 0 24 24" style="enable-background:new 0 0 24 24;" xml:space="preserve">
<style type="text/css">
	.st0{fill:none;}
	.st1{fill:#FFFFFF;}
</style>
<path class="st0" d="M0,0"/>
<path class="st1" d="M8,12c0-2.2,1.8-4,4-4s4,1.8,4,4s-1.8,4-4,4S8,14.2,8,12 M5.8,12c0,3.4,2.8,6.2,6.2,6.2s6.2-2.8,6.2-6.2
	S15.4,5.8,12,5.8S5.8,8.6,5.8,12 M17,5.6C17,6.4,17.6,7,18.4,7c0.8,0,1.4-0.6,1.4-1.4s-0.6-1.4-1.4-1.4S17,4.8,17,5.6 M7.2,21.8
	c-1.2-0.1-1.8-0.2-2.2-0.4c-0.6-0.2-1-0.5-1.4-0.9c-0.4-0.4-0.7-0.8-0.9-1.4c-0.2-0.4-0.4-1.1-0.4-2.2c-0.1-1.3-0.1-1.6-0.1-4.8
	s0-3.6,0.1-4.8C2.3,6,2.5,5.3,2.6,4.9c0.2-0.6,0.5-1,0.9-1.4C4,3.1,4.4,2.9,4.9,2.6C5.3,2.5,6,2.3,7.2,2.2C8.4,2.2,8.8,2.2,12,2.2
	c3.2,0,3.6,0,4.8,0.1c1.2,0.1,1.8,0.2,2.2,0.4c0.6,0.2,1,0.5,1.4,0.9c0.4,0.4,0.7,0.8,0.9,1.4c0.2,0.4,0.4,1.1,0.4,2.2
	c0.1,1.3,0.1,1.6,0.1,4.8c0,3.2,0,3.6-0.1,4.8c-0.1,1.2-0.2,1.8-0.4,2.2c-0.2,0.6-0.5,1-0.9,1.4c-0.4,0.4-0.8,0.7-1.4,0.9
	c-0.4,0.2-1.1,0.4-2.2,0.4c-1.3,0.1-1.6,0.1-4.8,0.1C8.8,21.8,8.4,21.8,7.2,21.8 M7.1,0.1C5.8,0.1,4.9,0.3,4.1,0.6
	C3.4,0.9,2.7,1.3,2,2C1.3,2.7,0.9,3.3,0.6,4.1C0.3,4.9,0.1,5.8,0.1,7.1C0,8.3,0,8.7,0,12s0,3.7,0.1,4.9c0.1,1.3,0.3,2.1,0.6,2.9
	C0.9,20.6,1.3,21.3,2,22c0.7,0.7,1.3,1.1,2.1,1.4c0.8,0.3,1.6,0.5,2.9,0.6C8.3,24,8.7,24,12,24c3.3,0,3.7,0,4.9-0.1
	c1.3-0.1,2.1-0.3,2.9-0.6c0.8-0.3,1.5-0.7,2.1-1.4c0.7-0.7,1.1-1.3,1.4-2.1c0.3-0.8,0.5-1.6,0.6-2.9C24,15.7,24,15.3,24,12
	s0-3.7-0.1-4.9c-0.1-1.3-0.3-2.1-0.6-2.9C23.1,3.4,22.7,2.7,22,2c-0.7-0.7-1.3-1.1-2.1-1.4c-0.8-0.3-1.6-0.5-2.9-0.6
	C15.7,0,15.3,0,12,0C8.7,0,8.3,0,7.1,0.1"/>
</svg>
